<?xml version="1.0" encoding="UTF-8"?>
<svg id="Layer_1" xmlns="http://www.w3.org/2000/svg" xmlns:xlink="http://www.w3.org/1999/xlink" version="1.1" viewBox="0 0 829.09 864">
  <!-- Generator: Adobe Illustrator 30.2.1, SVG Export Plug-In . SVG Version: 2.1.1 Build 1)  -->
  <defs>
    <style>
      .st0 {
        fill: #eabf64;
      }

      .st1 {
        fill: #faf9fc;
      }

      .st2 {
        fill: #491b53;
      }

      .st3 {
        fill: #e3d9e6;
      }

      .st4 {
        fill: url(#radial-gradient);
      }

      .st5 {
        fill: #fcfbfd;
      }

      .st6 {
        fill: #a21b6d;
      }

      .st7 {
        fill: #d2bedb;
      }

      .st8 {
        fill: #e5dde9;
      }

      .st9 {
        fill: #fbfbfc;
      }

      .st10 {
        fill: #f01e7a;
      }

      .st11 {
        fill: #eac063;
      }

      .st12 {
        fill: #451a50;
      }

      .st13 {
        fill: #f8f6fa;
      }

      .st14 {
        fill: #3f154b;
      }

      .st15 {
        fill: #3e144a;
      }

      .st16 {
        fill: #601d61;
      }

      .st17 {
        fill: #f6f4f9;
      }

      .st18 {
        fill: #531d5b;
      }

      .st19 {
        fill: #f01876;
      }

      .st20 {
        fill: #e2d8e6;
      }

      .st21 {
        fill: #601e61;
      }

      .st22 {
        fill: #541d5b;
      }
    </style>
    <radialGradient id="radial-gradient" cx="414.55" cy="432" fx="414.55" fy="432" r="423.36" gradientUnits="userSpaceOnUse">
      <stop offset="0" stop-color="#714586"/>
      <stop offset=".66" stop-color="#521c5a"/>
      <stop offset="1" stop-color="#3e144a"/>
    </radialGradient>
  </defs>
  <rect class="st4" width="829.09" height="864"/>
  <g>
    <path class="st7" d="M156.65,405.7l.26-3.93c1.2-1.61,3.39-4.96,5.29-5.36,11.09-2.34,22.59.62,32.24,6.31,4.74,2.8,6.33,8.5,3.49,12.95s-8.53,4.91-13.22,1.84c-15.49-10.15-20.73,2.2-28.06-11.81Z"/>
    <path class="st7" d="M691.88,392.78c-3.77,12.45-11.76,2.6-24.47,10.45-4.43,2.74-9.54,2.16-12.72-1.87-2.69-3.41-2.52-9.29,1.89-12.22,8.44-5.62,18.93-8.05,28.98-6.12,4.52.87,7.41,6.17,6.32,9.76Z"/>
    <path class="st7" d="M668.62,452.59l-1.82,13.66c-.56,4.52-7.21,5.29-10.33,4.36-3.76-1.12-6.41-4.89-6.32-9.23l.25-13.08c.09-4.6,4.25-8.69,7.42-9.18,4.33-.66,8.79,1.15,10.11,5.72.66,2.27.73,5.5.69,7.75Z"/>
    <circle class="st15" cx="777.01" cy="318" r=".63"/>
    <circle class="st15" cx="798.01" cy="356" r=".63"/>
    <circle class="st15" cx="749.01" cy="186.5" r=".5"/>
    <circle class="st15" cx="68.01" cy="522.5" r=".5"/>
    <circle class="st15" cx="95.01" cy="310.5" r=".5"/>
    <circle class="st15" cx="772.01" cy="299.5" r=".5"/>
    <circle class="st22" cx="718.01" cy="287.5" r=".5"/>
    <circle class="st22" cx="721.01" cy="285.5" r=".5"/>
    <path class="st16" d="M436.18,213.3l-7.62-7.19c-8.5-8.02-2.01-11.49-12.3-12.75-7.92-.97-12.45,3.33-16.14,9.24-1.64.98-9.83,8.23-10.42,9.91l-6.59,2c-3.12.95-6.63,2.54-8.96,3.6-7.03-3.25-20.26-1.18-27.43-6.64-3.78-2.88-12.52-14.18-15.36-11.32l-2.49,2.51-3.87-1.74c-3.34,3.54-6.96,5.68-11.32,6.37-27.35,4.31-25.85,7-53.25,1.17-4.16-.88-7.48-1.92-11.03-4.39-5.46-3.8-11.68-6.85-16.4-11.55-10.99-10.96-17.88-23.43-21.28-38.6-.52-2.34-.56-5.86-.81-8.38-1.05-10.5-.44-20.87,2.04-31.44,1.14-4.84,4.04-9.76,6.21-14.47,3.44-7.47,7.91-14.31,14.41-19.7,8.92-7.4,19.1-13.65,30.66-17.27,24.82-7.75,52.18-.89,72.77,14.77,2.48,1.89,5.31,1.33,7.02-.98,10.24-13.79,26.7-19.07,43.49-15.44,15.51,3.35,23.29,17.32,26.12,14.14l2.82-3.17c11.78-13.25,31.4-14.85,48.11-8.98,12.42,4.37,16.62,17.13,20.36,16.97,6.16-.27,19.47-19.07,54.39-20.22,17.86-.59,24.75.64,40.83,7.76,3.37,1.49,8.25,4.6,11.92,3.17,13.36-8.73,26.33-11.85,41.25-5.5,13.07,5.56,20.1,18.95,19.25,32.76l-.75,12.06-1.22,15.93-2.21,18.03c-.45,3.69-1.97,8.91-.23,12.3,7.07,13.81,5.92,29.37-4.01,41.62-7.46,9.21-23.88,12.57-36.3,9.93-16.45-3.5-8.74-3.95-20.88-8.66-10.51,4.48-20.5,7.89-31.43,10.85-3.44.93-6.73,3.57-9.05,5.74l-15.14-1.18c-5.03-.39-11.46-1.8-16.24-3.48-7.24-2.55-19.06-11.42-25.23-6.97l-.69,3.61-2.82-.55c3.5.68-14.7,7.64-13.28,8.71l-19.78,1.44M389.15,218.56,644.81,183.55c3.95-9.72,1.23-19.9-4.77-28.4,1.1-5.9,2.76-11.51,3.32-17.09l2.33-23.15,1.02-16.84c.99-16.34-9.34-30.2-26.39-31.01-10.47-.5-20.47,4.37-27.61,12.24-1.46,1.61-3.76,1.31-5.59.09-9.27-6.16-19.29-11.83-30.75-12.99-15.15-1.53-34.93-.76-47.85,7.47-7.49,4.77-14.39,9.57-20.84,15.23-2.24,1.96-4.15,3.6-6.67,4.36l-2.58-6.28c-4.35-10.6-12.68-17.79-23.9-20.32-9.96-2.25-25.47,2.16-31.05,10.06l-8.35,11.81c-5.22,7.38-6.78-7.04-18.78-16.5-13.76-10.85-39.04-7.32-47.03,12.62-1.51,3.77-3.08,7.2-5.53,10.82l-15.74-15.22c-5.79-5.6-13.22-8.58-21.06-11.12-13.25-4.3-28.64-5.3-42.03-.94s-25,10.96-33.51,21.56c-7.79,9.7-12.74,21.81-14.71,34.12-.62,3.88-.43,8.51-.53,12.21-.43,15.52,4.68,29.13,13.57,41.41,4.99,6.9,10.82,11.65,17.93,16.17,12.58,8,26.28,11.36,41.1,9.81,11.26-1.18,20.73-3.62,30.39-10.03l16.66-11.05,6.19,9.02c6.85,9.98,21.71,14.17,33.05,10.28,27.01-9.26,16.16-24.7,28.37-22.04,7.73,1.69,15.04,1.46,22.83.12,2.97,2.64,5.53,6.45,7.35,9.96,4.94,9.52,15.17,13.78,26.01,13.13,12.15-.73,22.39-7.89,28.87-18.39.83-1.35,4.12-.3,5.22.96,4.8,5.53,10.54,8.42,17.02,11.28,24.61,10.87,39.82,8.58,64.45-1.19,5.66-2.25,10.25-6.33,15.13-10.3,11.15,13.96,16.7,18.42,34.53,15.24,9.6-1.71,16.06-7.57,19.94-17.09Z"/>
    <path class="st18" d="M544.51,316h0Z"/>
    <circle class="st2" cx="746.01" cy="410.5" r=".5"/>
    <circle class="st2" cx="104.01" cy="447.5" r=".5"/>
    <path class="st7" d="M585.84,257.32l-6.67-2.92c-5-1.36-7.63-5.33-6.68-9.88s4.83-7.49,10.14-6.57c8.35,1.45,24.37,7.67,19.99,17.4-1.75,3.89-6.34,6.97-10.44,5l-6.35-3.04Z"/>
    <circle class="st21" cx="622.01" cy="414.5" r=".5"/>
    <circle class="st22" cx="173.01" cy="475.5" r=".5"/>
    <circle class="st22" cx="615.01" cy="422.5" r=".5"/>
    <g>
      <path class="st20" d="M630.36,223.28c14.8,3.95,27.98,10.52,40.93,18.03,12.64,12.68,32.47,40.12,26.2,63.79,20.97,6.03,45.38,22.9,56.27,37.59,9.92,11.9,14.89,27.13,20.46,41.39,0,0-.53,24.48-.53,24.48-.06,2.94-2.35,9.5-1.01,12.44,38.34,57.16,6.06,124.54-35.92,172.78-3.16-3-9.07-7.97-12.56-10.23,38.79-34.74,66.6-97.51,40.77-146.34-12.98,21.99-45.56,43.79-65.98,23.97-10.17-9.87-13.18-24.96-5.35-38.28,13.57-23.1,42.76-27.64,64.74-13.26,9.11-41.97-27.01-79.56-64.6-90.56-5.27,17.42-12.84,26.48-31.39,37.29l-15.93,5.73c-24.06,6.38-44.91-18.6-38.25-36.19,1.03-2.72,4.37-6.16,6.93-8.94,5.69-6.69,16.15-12.31,18.23-13.13,7.42-2.95,12.32-2.95,20.1-3.91,4.76-.58,30.32,1.39,30.32,1.39.72-31.23-25.59-60.29-56.91-62.29,7.18.55-29.27-4.52-22.18-6.33l-.27-7.88c3.19-4.33,22.5-2.57,25.92-1.55ZM679.31,316.35c-15.29-2.62-26.2-2.04-38.6.16-7.16,3.28-15.82,7.63-17.25,15.57-1.96,10.84,9.14,17.91,19.91,15.79,16.05-3.17,31.17-15.25,35.94-31.51ZM754.59,425.8c-10.82-11.25-26.33-13.69-39.49-5.97-8.31,4.87-12.9,13-11.53,20.76,1.42,8.01,7.23,16.07,17.03,14.68,15.05-2.14,27.32-14.63,33.99-29.47Z"/>
      <path class="st7" d="M273.83,299.45c-.24.62-.25,1.92-.27,2.63-10.99,17.45-13.12,48.36-.44,66.27.71.89-7.48,11.39-8.77,10.39-2.71-3.33-5.55-7.31-7.33-11.33-4.74-10.71-6.61-22.43-6.36-34.12.11-4.91,2.55-13.4,3-17.91l9.08-26.84c5.64-9.98,4.91-22.45-1.35-32.54l-.39-4.72,1.93-3.16c3.84-2.52,9.05-1.73,11.34,2.77,9.2,18.07,6.4,30.71-.45,48.56Z"/>
      <path class="st8" d="M323.54,245.49c-2.34,3.14-5.52,10.49-5.15,14.52.36,1.9.56,2.58.5,3.37-1.05.21-2.04.68-2.04,1.44l-.02,3.56c-.01,3-.12,6.01,0,9,.03.87.07,2.37.17,3.15.22,1.72.68,4.17,1.06,5.91l1.08,4.96.77,2.18c1.08,3.04,3.47,8.83,5.08,11.89l2.96,5.63c1.1,2.09,2.67,3.62,4.16,4.8l2.82,5.45-10.06,5.97c.41-.29.96-2.59.31-3.48-18.33-24.89-23.64-57.03-9.22-85.26,1.98-.41,4.87-.62,6.23.33s2.32,5.26,1.34,6.59Z"/>
      <path class="st8" d="M232.37,218.23l2.08-.22c.36-.04,1.86-.01,1.78-.01,7.19,1.21,14.2,4.27,19.92,9.25,3.91,3.41,4.62,8.68,1.56,12.76-2.61,3.48-8.36,3.94-12.35.82-2.99-2.34-6.75-4.77-10.5-5.22-4.62-.55-8.36-3.13-8.85-7.53-.55-4.99,2.51-8.73,6.35-9.86Z"/>
      <path class="st22" d="M699.78,276.35l-1.01-1.97,1.01,1.97Z"/>
      <path class="st7" d="M535.8,230.5c2.3,1.57,4.21,3.6,5.95,5.87.02.19.13.49.19.71l1.4,6.37.49,1.89-.03,5.03c-.01,2.34-.2,5.53-.68,7.81l-1.14,5.35-.18.75c-2.04,1.98-3.6,5.07-4.72,7.91l-1.17,1.15-2.03,2.19c-.83.65-2.24,2.05-2.85,2.85-2.3,1.39-4.56,3.05-6.32,4.95-2.3.87-4.83,2.48-6.79,4.04l-3.13,1.91c-.53.35-1.5,1.14-2.07,1.42-6.93,3.34-16.73,15.57-15.73,24.85-4.51-.75-8.82-2.92-13.22-4.32,1.41-12.96,8.75-24.47,20.26-31.63l15.34-9.55c9.46-5.89,13.26-17.3,9.3-27.59-.7-1.82-1.48-4.61-1.78-6.06-.05-.25-.06-.78.04-1l.95-2,5-2.92,2.92.04Z"/>
      <path class="st8" d="M595.71,303.4l5.62,5.62c2.2,2.2.81,6.85-.95,8.49-2.86,2.67-6.28,2.27-9.64.85-19.13-8.1-38.91,8.47-45.93,25.15-3.93-1.57-8.61-4.46-11.19-8.09l6.3-10.92,2.22-2.84,1.77-1.37c.85-.66,1.63-1.65,3.02-3.11,1.94-.85,1.98-1.06,2.95-2.65l1.15-1.01c1.97-1.12,5.22-3.32,6.92-4.9l3.94-1.93,1-.12,3-1.3,1.97-.78c1.49-.34,3.67-.96,5.12-1.18,12.68-1.91,15.34,1.19,22.74.08Z"/>
      <path class="st8" d="M406.13,301.68l-.94,1.52c-.23.37-1.36-.8-1.46-.9l2.41-.61Z"/>
      <path class="st7" d="M364.79,235.35c9.98,3.02,17.06,12.25,20.69,22.28,1.91,5.29-.54,10.61-5.4,12.08-5.26,1.59-9.63-.53-11.68-6.13-3.81-10.44-9.5-8.91-14.54-16.34l.24-4.86.96-2.93c1.65-2.19,6.52-5.07,9.74-4.09Z"/>
      <path class="st18" d="M691.1,299.38c-.02-1.51.3-2.76.9-3.99-.18,1.3-.49,2.83-.9,3.99Z"/>
      <path class="st18" d="M533.88,275.53l2.03-2.19c-.52.86-1.23,1.56-2.03,2.19Z"/>
      <path class="st21" d="M526.93,235.38l.95-2-.95,2Z"/>
      <path class="st18" d="M688.86,304.43l1.17-2.05c-.2.56-.83,1.5-1.17,2.05Z"/>
      <path class="st18" d="M514.79,289.27l3.13-1.91c-.98.78-1.94,1.42-3.13,1.91Z"/>
      <circle class="st18" cx="319.39" cy="282.88" r=".5"/>
      <circle class="st18" cx="318.39" cy="271.88" r=".5"/>
      <path class="st18" d="M273.56,302.08h0Z"/>
      <circle class="st22" cx="663.39" cy="420.88" r=".5"/>
      <g>
        <path class="st3" d="M132.21,453.54c8.84-11.21,4.17-26.58-10.38-34.7-18.35-10.24-41.12-8.78-60.11-.21-4.52-6.21-2.86-12.25-3.41-17.71-2.73-26.72,23.39-50.53,57.27-57.53,4.31,11.22,11.65,19.8,21.3,27.32,10.26,4.78,22.5,8.02,32.54,1.84,5.18-3.18,8.53-8.76,8.23-14.62-1.07-20.92-30.28-26.28-51.51-26.12.81-20.78,16.81-38.25,39.97-46.63,5.85,13.07,17.71,24.78,34.9,27.59,13.02,2.13,24.79-2.14,29.71-10.98,4.51-8.09.71-18.54-9.53-24.58l-6.64-3.91c-11.99-2.38-23.67-3.75-38-1.77,1.18-21.12,16.66-37.99,37.58-49.74,2.48-1.39,1.3-6.87-1.02-7.85-11.07-4.69-36.54,23.92-40.55,29.88-6.01,8.94-7.39,20.42-9.04,30.62-13.45,5.87-27.48,12.8-36.39,22.8-8.97,10.08-12.21,22.94-13.61,35.85-52.27,10.51-81.05,51.1-62.53,92.18-18.38,15.89-22.65,37.79-12.32,58.4,12.41,24.75,42,42.77,74.66,47.75,4.6.7,6.18-8.49,2.18-9.33-27.01-5.69-51.65-18.74-63.89-39.29-9.37-15.74-8.54-34.05,5.46-47.19,12.07,12.97,25.93,23.28,45.59,26.1,11.19,1.61,23.53-.54,29.54-8.17ZM110.24,424.33c10.74,3.8,16.28,12.51,13.44,20.56-3.43,6.59-12.49,8.87-21.11,6.91-15.48-3.52-28.06-11.87-36.28-23.59,12.67-6.91,29.12-9.13,43.95-3.88ZM165.46,355.87c1.05,3.11-1.17,7.51-4.07,8.99-12.34,6.26-31.64-11.92-32.95-22.86,13.78-.08,32.72,1.16,37.02,13.88ZM210.62,282.95c7.84,2.63,11.5,9.04,9.43,13.98s-9.24,7.28-16.5,6.15c-13.26-2.06-22.68-10.99-25.18-21.59,10.83-1.91,21.93-2,32.25,1.46Z"/>
        <ellipse class="st22" cx="61.32" cy="395.35" rx=".64" ry=".8" transform="translate(-337.94 420.85) rotate(-84.84)"/>
      </g>
      <circle class="st22" cx="260.39" cy="291.88" r=".5"/>
      <g>
        <path class="st13" d="M418.76,301.03c4.38-.22,9.57-.22,13.91.17,17.39,1.55,34.47,4.74,51.11,10.02,4.4,1.39,8.7,3.57,13.22,4.32,1.01.72,2.51,1.47,3.74,1.83l2.06,1.19c.72.42,2.19.85,3.07,1.06.94.85,2.61,1.63,3.93,1.93,2.06,1.58,4.74,3.12,7.09,3.96l1.63-.25c.57,1.3,2.16,3.23,3.55,3.98l11.55,6.17c2.58,3.63,7.25,6.52,11.19,8.09,15.49,14.84,30.45,29.99,42.77,47.73,3.72,5.35,8.19,12.55,11.1,18.32,6.77,13.41,11.95,27.69,17.12,41.8.8,2.2,1.81,6.45,2.24,8.87l2.03,11.46c25.92-.07,46.68,13.42,61.54,33.4,10.54,19.13,13.24,39.99,8.18,61.29l-6.11,14.68c-9.06,12.45-19.19,23.71-33.9,30.08s-30.21,7.93-45.41,4.11l-11.69,30.3-7.03,14.67c-4.2,5.3-6.78,12.34-10.68,17.85-8.36,11.8-16.8,23.7-26.35,34.59-15.12,17.25-33.48,30.31-52.62,42.56l-15.1,7.04-23.14,8.03-14.42,2.51-3.72,7.69c-.56.67-1.75,2.37-2.46,3.11l-10.28,10.66c-18.38,12.35-41.7,15.96-61.55,4.49-28.46-16.44-28.34-48.49-30.36-50.39-4.46-4.21-14.76-10.51-19.85-14.4-18.64-14.87-54.86-62.03-63.05-81.58l-15.55-37.1c-27.36,6.6-56.7-3.43-73.62-25.99-16.31-21.75-17.86-49.74-8.66-74.9,1.87-5.13,16.09-21.91,18.69-26.18,1.36-.2,3.26-.92,4.64-1.98,12.69-9.78,28.19-14.32,44.5-14.74,4.48-18.51,10.08-36.34,18.06-53.15,6.67-14.04,16.07-26.47,24.25-39.58,1.29.99,9.48-9.5,8.77-10.39,14.07-14.3,29.11-27.05,45.53-38.56l6.23-2.48,10.06-5.97,17-7.32c.86-.37,1.94-2.31,1.78-2.6-1.34,2.17,19.16-4.38,18.35-4.81,10.54-1.25,21.04-3.89,31.65-4.31.11.1,1.24,1.27,1.46.9l.94-1.52,12.63-.64ZM301.89,535.05c-2.45-1.12-5.78-3.98-8.87-4.89-25.24-19.89-35.39-43.77-32.4-76.75-5.92-1.74-10.29-3.74-15.92-6.57-4.11,12.11-6.98,23.8-9.4,35.96-.31,1.56-1.33,3.81-2.49,4.18-.96.3-3.45.31-4.67.16-25.01-3.11-48.65,10.94-58.85,32.58-10.95,23.21-5.87,50.3,12.53,67.48,16.63,15.53,39.48,19.34,60.15,9.92,2.15-.98,5.31,1.3,5.96,3.43,11.24,36.47,29.34,69.69,54.26,98.46,9.81,11.32,19.88,21.19,32.69,29.73,1.36-14.73,5.18-28.03,9.97-41.34-19.69-27.88-28.86-68.99-21.18-101.83,4.42-18.88,21.01-30.26,40.43-27.19,24.26,3.83,48.06,6.86,72.66,3.68l30.06-3.89c19.09-2.47,35.02,10.65,38.31,29.38,7.36,41.86-6.57,93.83-42.8,119.11-2.23,5.1-3.74,10.83-4.84,16.28l-6.67,33.07c42.82-10.04,78.22-39.48,103.22-74.44,17.46-24.42,29.99-51.11,39.03-79.74,1.01-3.2,3.67-5,6.91-3.72,19.48,7.69,40.76,4.62,56.6-9.09,19.57-16.94,26.14-43.98,15.62-68-9.74-22.25-33.26-36.76-58.59-33.87-3.64.42-6.12-1-6.72-4.86-5.32-34.49-19.43-66.55-40.8-93.98-7.96-10.21-17.22-18.08-26-26.69l-5.73-5.61c-2.28-2.23-4.51-3.72-6.65-5.2-25.37-17.64-54.07-29.54-84.79-33.18-6.52-.77-13.2-.98-20.07-.95-60.47-1.68-115.86,29.77-151.05,78.31,4.79,6.48,2.91,11.16,11.94,14.49,9.2-6.91,18.14-13.09,29.28-15.93,30.39-7.75,61.09,5.99,77,32.98,20.26,34.38,11.05,82.83-24.71,104.2-18.35,10.97-39.22,13.02-59.02,5.29-1.29-.5-3.31-.83-4.41-.95ZM374.54,511.37c24.55-27.71,22.43-70.4-4.42-95-27.03-24.76-67.61-19.88-88.57,10.23-17.18,24.68-16.2,59.3,2.99,82.78,23.3,28.52,65.28,29.9,90,1.99ZM271.32,425.21l5.01-7.78c-4.21-3.81-7.46-7.27-11-12.53l-6.95,11.49c2.76,5.17,7.91,8.79,12.94,8.82ZM263.11,442.87l2.96-7.98-13.48-8.1-3.64,9.23c3.74,4.71,8.62,7.15,14.17,6.85ZM479.31,670c13.18-24.32,18.26-51.97,14-78.44-2.45-15.26-13.65-23.11-28.58-20.64-43.99,7.27-60.32,5.3-103.19-.23-12.61-1.62-23.36,5.63-25.92,18.64-5.72,29.07.19,59.97,15.92,85.75,15.59-21.37,37.39-26.67,61.51-19.27,21.37-7.66,48.85-3.33,66.27,14.19ZM470.97,676.01c-1.81-6.97-30.2-21.2-52.22-11.63-8.13,3.54-12.89,12.54-16.46,20.24-8.37,18.08-9.51,37.71-8.87,57.45.08,2.34-3.03,4.78-5.01,4.41s-3.45-2.41-4.35-4.62c-.06-27.8,1.73-55.44,20.29-78.6-19.3-5.38-36.88,3.45-46.39,20.3-13.06,23.15-18.56,55.71-9.03,80.99,4.03,10.67,10.55,20.24,20.71,26.01,14.57,8.27,33.29,8.15,47.36-1.1,22.97-15.09,27.02-44.05,31.69-68.26,6.14-31.8,23.5-40.46,22.26-45.19Z"/>
        <path class="st19" d="M422.86,316.65c.9,4.34,2.35,8.65,5.1,12.73,1.78,2.65,6.25,2.85,8.94,1.59,1.99-.94,4.11-4.92,3.05-7.13l-3.03-6.32,6.01.07c30.72,3.63,59.43,15.54,84.79,33.18l-2.04,14.98c-.06.43-.97,1.86-.87,1.61-14.35-10.06-32.93-12.58-48.7-3.97-4.16,2.27-6.42,6.44-4.33,10.55,1.94,3.82,6.32,5.28,10.6,3.02,11.45-6.05,25.81-4.34,35.08,4.82,3.16,3.12,7.41,4.46,11.52,1.29,2.37-1.83,4.06-7.03,1.22-10.61l7.24-3.48,2.67-7.37c8.78,8.6,18.04,16.47,26,26.69,21.37,27.43,35.48,59.49,40.8,93.98.6,3.86,3.07,5.28,6.72,4.86,25.33-2.89,48.85,11.62,58.59,33.87,10.52,24.02,3.95,51.06-15.62,68-15.83,13.7-37.12,16.77-56.6,9.09-3.24-1.28-5.9.52-6.91,3.72-9.03,28.63-21.57,55.33-39.03,79.74-25,34.96-60.4,64.4-103.22,74.44l6.67-33.07c1.1-5.45,2.61-11.18,4.84-16.28,36.22-25.28,50.16-77.24,42.8-119.11-3.3-18.74-19.22-31.85-38.31-29.38l-30.06,3.89c-24.6,3.18-48.39.16-72.66-3.68-19.42-3.07-36.01,8.31-40.43,27.19-7.68,32.85,1.49,73.95,21.18,101.83-4.79,13.31-8.61,26.61-9.97,41.34-12.81-8.54-22.88-18.41-32.69-29.73-24.92-28.77-43.02-61.98-54.26-98.46-.65-2.12-3.81-4.41-5.96-3.43-20.67,9.42-43.52,5.62-60.15-9.92-18.39-17.18-23.47-44.27-12.53-67.48,10.2-21.63,33.84-35.68,58.85-32.58,1.22.15,3.71.15,4.67-.16,1.15-.37,2.18-2.62,2.49-4.18,2.42-12.16,5.29-23.84,9.4-35.96,5.63,2.83,10,4.83,15.92,6.57-2.99,32.98,7.16,56.86,32.4,76.75-18.55-5.42-37.59,1.46-46.23,18.25-9.04,17.58-2.06,38.73,13.9,48.17,17.08,10.1,38.37,4.84,49.03-11.05,10.84-16.14,7.4-37.73-7.84-50.49,1.1.12,3.12.44,4.41.95,19.8,7.73,40.67,5.68,59.02-5.29,35.76-21.37,44.96-69.82,24.71-104.2-15.9-26.99-46.61-40.73-77-32.98-11.14,2.84-20.07,9.02-29.28,15.93-9.02-3.33-7.15-8-11.94-14.49,35.18-48.54,90.58-79.99,151.05-78.31ZM345.82,377.03c4.2,2.17,8.16,1.59,10.77-1.61,2.05-2.51,2.16-8.25-1.35-10.43-17.33-10.8-39.52-8.5-54.26,5.31-3.93,3.68-4.58,9.07-.81,12.22s8.17,2.28,11.7-1.25c8.82-8.8,22.6-10.11,33.94-4.24ZM530.92,533.53c-10.34,8.99-18.43,20.31-16.78,34.74,2.27,19.7,18.69,34.16,37.4,33.59,19.6-.6,35.29-16.39,35.76-35.11.51-20.4-14.12-36.95-34.72-38.22-7.25-.44-14.12,2.08-21.66,5,29.68-18.15,42.02-45.38,38.5-80.32,6.1-.46,23.21-6.98,17.39-14.3-5.91-7.44-9.63,6.49-19.75,4.25l-2.51-8.54c6.56-2.37,20.95-12.27,13.65-17.92-6.92-5.36-8.53,8.87-19.2,9.18l-5.32-8.88c4.79-4.05,8.95-7.56,11.06-12.55,1.52-3.6-.34-7.14-3.46-7.77-8.78-1.78-4.02,9.26-15.33,12.43-8.81-6.47-17.82-12.46-28.53-15.39-27.97-7.65-56.66,3.29-73.57,26.87-18.66,26.02-19.22,61.49-1.83,88.37,19.03,29.41,56.63,40.09,88.89,24.58ZM430.43,540.71c1.84-.18,4.27-2.89,4.19-5.36-.33-11-6.72-20.51-17.88-21.97-13.17-1.72-24.03,9.45-23.34,22.51.17,3.14,3.19,5.17,6.06,4.7,2.3-.38,3.67-3.36,3.83-6.03.39-6.51,5.14-11.52,11.09-11.39,14.22.31,6.09,18.52,16.05,17.53Z"/>
        <path class="st14" d="M479.31,670c-17.42-17.52-44.89-21.85-66.27-14.19-24.13-7.4-45.92-2.1-61.51,19.27-15.72-25.78-21.64-56.68-15.92-85.75,2.56-13.01,13.31-20.27,25.92-18.64,42.87,5.53,59.21,7.5,103.19.23,14.93-2.47,26.13,5.39,28.58,20.64,4.26,26.48-.82,54.12-14,78.44Z"/>
        <path class="st19" d="M470.97,676.01c1.23,4.73-16.13,13.4-22.26,45.19-4.67,24.2-8.72,53.17-31.69,68.26-14.08,9.25-32.79,9.37-47.36,1.1-10.17-5.77-16.69-15.33-20.71-26.01-9.54-25.28-4.03-57.84,9.03-80.99,9.5-16.85,27.09-25.67,46.39-20.3-18.56,23.15-20.35,50.8-20.29,78.6.9,2.21,2.46,4.27,4.35,4.62s5.09-2.07,5.01-4.41c-.64-19.74.5-39.37,8.87-57.45,3.57-7.7,8.33-16.7,16.46-20.24,22.02-9.57,50.41,4.66,52.22,11.63Z"/>
        <path class="st11" d="M293.02,530.16c3.09.9,6.42,3.77,8.87,4.89,15.24,12.76,18.68,34.35,7.84,50.49-10.67,15.88-31.95,21.15-49.03,11.05-15.97-9.44-22.94-30.6-13.9-48.17,8.64-16.79,27.68-23.67,46.23-18.25Z"/>
        <path class="st12" d="M374.54,511.37c-24.72,27.91-66.7,26.53-90-1.99-19.19-23.49-20.17-58.11-2.99-82.78,20.96-30.11,61.54-34.99,88.57-10.23,26.85,24.6,28.97,67.29,4.42,95ZM370.02,498.78c15.73-22.74,13.05-53.86-6.33-73.05-19.52-19.33-50.32-18.52-68.67,1.95-20.5,22.87-19.11,58.95,3.42,79.93,21.57,20.08,54.63,15.67,71.58-8.83Z"/>
        <path class="st8" d="M471.8,228.56c2.4,2.03,3.73,5.07,2.91,8.21-.86,3.29-3.85,4.2-7.27,5.25-25.44,7.8-39.49,33.65-34.77,59.18-4.33-.39-9.53-.39-13.91-.17-10.62-28.61,21.21-63.7,42.21-71.59.5-.19,1.42-.68,1.91-.93l2.09-.21c2.05-.2,4.82-.04,6.83.25Z"/>
        <path class="st10" d="M271.32,425.21c-5.03-.03-10.19-3.65-12.94-8.82l6.95-11.49c3.54,5.26,6.79,8.72,11,12.53l-5.01,7.78Z"/>
        <path class="st8" d="M442.94,317.6l-6.01-.07,3.03,6.32c1.06,2.2-1.07,6.19-3.05,7.13-2.69,1.27-7.17,1.06-8.94-1.59-2.74-4.09-4.2-8.4-5.1-12.73,6.87-.03,13.56.18,20.07.95Z"/>
        <path class="st8" d="M540.1,361.59l-2.67,7.37-7.24,3.48-5.39-5.08c-.1.26.82-1.18.87-1.61l2.04-14.98c2.14,1.49,4.36,2.97,6.65,5.2l5.73,5.61Z"/>
        <path class="st10" d="M263.11,442.87c-5.55.29-10.42-2.15-14.17-6.85l3.64-9.23,13.48,8.1-2.96,7.98Z"/>
        <circle class="st18" cx="460.39" cy="770.88" r=".5"/>
        <path class="st17" d="M530.92,533.53c-32.26,15.51-69.86,4.83-88.89-24.58-17.39-26.88-16.84-62.34,1.83-88.37,16.91-23.58,45.61-34.52,73.57-26.87,10.71,2.93,19.73,8.92,28.53,15.39,11.3-3.16,6.55-14.2,15.33-12.43,3.12.63,4.99,4.16,3.46,7.77-2.11,5-6.27,8.5-11.06,12.55l5.32,8.88c10.67-.31,12.28-14.54,19.2-9.18,7.3,5.65-7.1,15.55-13.65,17.92l2.51,8.54c10.12,2.24,13.84-11.69,19.75-4.25,5.82,7.32-11.29,13.84-17.39,14.3,3.52,34.94-8.82,62.17-38.5,80.32ZM484.98,529.65c22.9,6.08,45.13-2.07,59.8-19.37,24.38-28.76,20.78-72.56-8.29-96.49-23.27-19.15-56.24-17.63-77.65,3.49-17.79,17.55-24.37,42.67-17.89,67.2,5.66,21.42,21.93,39.29,44.03,45.16Z"/>
        <path class="st0" d="M530.92,533.53c7.55-2.91,14.42-5.44,21.66-5,20.6,1.26,35.23,17.82,34.72,38.22-.47,18.71-16.16,34.51-35.76,35.11-18.71.57-35.13-13.88-37.4-33.59-1.66-14.43,6.43-25.75,16.78-34.74Z"/>
        <path class="st1" d="M524.81,367.36l5.39,5.08c2.84,3.58,1.14,8.79-1.22,10.61-4.1,3.17-8.36,1.83-11.52-1.29-9.28-9.16-23.63-10.87-35.08-4.82-4.28,2.26-8.66.8-10.6-3.02-2.09-4.11.18-8.28,4.33-10.55,15.78-8.61,34.35-6.08,48.7,3.97Z"/>
        <path class="st1" d="M345.82,377.03c-11.34-5.87-25.12-4.56-33.94,4.24-3.53,3.52-7.94,4.39-11.7,1.25s-3.12-8.53.81-12.22c14.74-13.82,36.93-16.12,54.26-5.31,3.5,2.18,3.4,7.92,1.35,10.43-2.61,3.2-6.57,3.78-10.77,1.61Z"/>
        <path class="st13" d="M430.43,540.71c-9.96.99-1.83-17.22-16.05-17.53-5.95-.13-10.7,4.87-11.09,11.39-.16,2.67-1.53,5.66-3.83,6.03-2.87.47-5.89-1.56-6.06-4.7-.69-13.06,10.17-24.23,23.34-22.51,11.16,1.45,17.55,10.97,17.88,21.97.07,2.48-2.35,5.18-4.19,5.36Z"/>
        <path class="st9" d="M370.02,498.78c-16.94,24.5-50.01,28.91-71.58,8.83-22.53-20.98-23.92-57.06-3.42-79.93,18.35-20.47,49.14-21.28,68.67-1.95,19.37,19.18,22.05,50.31,6.33,73.05Z"/>
        <path class="st12" d="M484.98,529.65c-22.11-5.87-38.38-23.74-44.03-45.16-6.48-24.53.1-49.65,17.89-67.2,21.42-21.12,54.38-22.64,77.65-3.49,29.07,23.92,32.67,67.73,8.29,96.49-14.67,17.3-36.9,25.45-59.8,19.37ZM535.66,503.42c20.1-23.23,18.23-58.84-4.31-79.24-20.86-18.87-51.7-15.99-69.05,5.82-17.67,22.2-16.68,54.35,2.68,75.1,19.59,20.99,51.54,20.44,70.69-1.69Z"/>
        <path class="st9" d="M535.66,503.42c-19.14,22.12-51.1,22.68-70.69,1.69-19.36-20.75-20.34-52.91-2.68-75.1,17.35-21.8,48.19-24.69,69.05-5.82,22.54,20.39,24.42,56.01,4.31,79.24Z"/>
      </g>
      <g>
        <path class="st6" d="M645.19,183.93c-3.87,9.52-10.34,15.38-19.94,17.09-17.83,3.18-23.38-1.28-34.53-15.24-4.88,3.97-9.46,8.05-15.13,10.3-24.63,9.77-39.84,12.07-64.45,1.19-6.47-2.86-12.22-5.76-17.02-11.28-1.1-1.26-4.39-2.31-5.22-.96-6.48,10.5-16.72,17.66-28.87,18.39-10.84.65-21.07-3.61-26.01-13.13-1.82-3.51-4.38-7.32-7.35-9.96-7.79,1.35-15.1,1.57-22.83-.12-12.21-2.67-1.36,12.78-28.37,22.04-11.34,3.89-26.2-.3-33.05-10.28l-6.19-9.02-16.66,11.05c-9.66,6.4-19.13,8.85-30.39,10.03-14.82,1.56-28.52-1.81-41.1-9.81-7.11-4.52-12.93-9.26-17.93-16.17-8.89-12.29-14-25.89-13.57-41.41.1-3.7-.09-8.33.53-12.21,1.97-12.31,6.92-24.42,14.71-34.12,8.51-10.59,20.47-17.3,33.51-21.56s28.78-3.36,42.03.94c7.84,2.54,15.27,5.52,21.06,11.12l15.74,15.22c2.45-3.63,4.01-7.05,5.53-10.82,7.99-19.94,33.27-23.47,47.03-12.62,12,9.46,13.56,23.88,18.78,16.5l8.35-11.81c5.58-7.9,21.08-12.31,31.05-10.06,11.21,2.53,19.55,9.73,23.9,20.32l2.58,6.28c2.52-.76,4.43-2.4,6.67-4.36,6.45-5.66,13.35-10.47,20.84-15.23,12.92-8.23,32.7-9,47.85-7.47,11.47,1.16,21.48,6.83,30.75,12.99,1.84,1.22,4.13,1.52,5.59-.09,7.14-7.87,17.14-12.74,27.61-12.24,17.05.82,27.38,14.67,26.39,31.01l-1.02,16.84-2.33,23.15c-.56,5.58-2.22,11.2-3.32,17.09,6,8.5,8.72,18.69,4.77,28.4ZM591.84,170.27c2.23-3.35,1.85-8.89,2.23-12.83l1.09-11.09c.51-5.18.68-10.67-2.09-15.01-7.94-12.44-15.58-10.57-14.39-13.5,1.29-3.16,11.88-6.18,10.24-22.7-.53-5.37-4.86-9.44-9.26-12.58-10.73-7.66-23.55-10.77-36.75-10.36-8.03.25-15.72.85-23.25,4.08-10.67,4.58-21.01,11.26-28.2,20.58-6.69,8.68-9.32,18.68-13.59,29.13-1.25-2.22-2-4.86-2.32-7.35-1.37-10.61-2.65-20.98-5.87-31.1-2.7-8.48-11.13-13.94-19.67-14.27-7.87-.3-16.37,1.81-20.6,8.51-5.23,8.29-12.09,21.2-15.96,30.85-2.57-2.33-4.03-5.78-5.63-9.26-2.77-6.05-5.96-12.01-9-17.78-4.55-8.62-12.45-12.76-21.92-12.53-28.54.69-22.87,36.96-28.31,53.64-3.61-3.81-2.59-7.96-4.17-12-5.2-13.27-14.64-25.26-26.55-33.11-11.7-7.71-25.28-9.38-38.97-9.35-10.69.03-19.51,4.65-28.34,9.62-9.84,5.54-15.96,12.85-20.22,23.1-3.31,7.97-7.83,15.23-7.57,24.42s-.22,19.44,3.93,28.26c8.33,17.71,17.06,28.19,35.72,35.31,15.35,5.86,33.82,4.68,48.44-2.32,16.83-8.06,24.22-19.02,34.51-35.02.61,3.41.36,6.53-.12,10.09-1.03,7.56.41,16.61,5.67,22.77,2.94,3.45,9.36,6.3,14.01,6.62,6.95.47,14.85-2.23,19.3-7.34,7.31-8.4,6.07-23.27,8.21-22.48,3.19,1.17,8.26,9.46,25.61,8.04,6.88-.56,10.61-5.38,16.26-10.66,1.31,3.16,1.48,6.14,1.71,9.94.37,6.05,3.36,13.48,7.66,17.88,5.49,5.61,14.05,5.61,20.93,3.82,12.77-3.32,19.91-14.69,16.75-27.63-.73-3.01-1.2-6.65,1.62-8.98,3.64,6.24,6.42,12.7,11.28,17.07,4.53,4.08,8.72,8.22,13.69,11.63,9.62,6.61,22.05,9.75,33.91,9.89,5.32.07,10.81-1.22,15.8-2.03,16.33-2.66,24.97-10.18,34.17-23.98ZM620.3,195c8.63-.85,16-5.97,18.57-13.35,2.98-8.54.79-16.8-5.59-22.55-2.28-2.05-1.1-5.08.12-7.2,3.89-6.78,4.17-14.73,4.8-22.41l.92-11.15,1.08-10.98c.98-9.99,1.18-20.41-6.17-28.23-7.45-7.92-19.83-8.52-28.72-2.26-13.31,9.38-8.64,26.09-7.72,40.47l1.02,16.02c.51,7.97,2.4,15.02,6.63,21.69l-5.98,8.01c-1.89,2.53-3.34,8.57-3.04,12.04.84,9.59,9.77,21.3,24.07,19.89Z"/>
        <path class="st10" d="M591.84,170.27c-9.19,13.8-17.83,21.33-34.17,23.98-4.99.81-10.48,2.1-15.8,2.03-11.86-.15-24.29-3.29-33.91-9.89-4.97-3.41-9.15-7.55-13.69-11.63-4.86-4.37-7.64-10.84-11.28-17.07-2.82,2.34-2.36,5.98-1.62,8.98,3.15,12.94-3.99,24.31-16.75,27.63-6.89,1.79-15.44,1.79-20.93-3.82-4.31-4.4-7.29-11.83-7.66-17.88-.23-3.79-.4-6.78-1.71-9.94-5.65,5.28-9.38,10.09-16.26,10.66-17.35,1.42-22.42-6.87-25.61-8.04-2.14-.79-.9,14.08-8.21,22.48-4.45,5.11-12.36,7.81-19.3,7.34-4.66-.32-11.07-3.16-14.01-6.62-5.26-6.17-6.69-15.22-5.67-22.77.48-3.56.73-6.68.12-10.09-10.29,16-17.67,26.96-34.51,35.02-14.62,7-33.09,8.18-48.44,2.32-18.66-7.12-27.39-17.61-35.72-35.31-4.15-8.83-3.66-18.71-3.93-28.26s4.26-16.46,7.57-24.42c4.26-10.25,10.38-17.56,20.22-23.1,8.83-4.97,17.65-9.6,28.34-9.62,13.69-.03,27.27,1.64,38.97,9.35,11.91,7.85,21.36,19.84,26.55,33.11,1.58,4.04.57,8.19,4.17,12,5.44-16.68-.23-52.95,28.31-53.64,9.48-.23,17.37,3.9,21.92,12.53,3.04,5.77,6.23,11.73,9,17.78,1.6,3.48,3.05,6.93,5.63,9.26,3.88-9.65,10.73-22.57,15.96-30.85,4.23-6.7,12.72-8.81,20.6-8.51,8.54.33,16.97,5.79,19.67,14.27,3.22,10.12,4.51,20.49,5.87,31.1.32,2.49,1.06,5.13,2.32,7.35,4.27-10.45,6.89-20.45,13.59-29.13,7.19-9.33,17.52-16,28.2-20.58,7.53-3.23,15.22-3.83,23.25-4.08,13.2-.41,26.02,2.71,36.75,10.36,4.4,3.14,8.73,7.21,9.26,12.58,1.64,16.52-8.96,19.54-10.24,22.7-1.19,2.92,6.45,1.05,14.39,13.5,2.77,4.34,2.6,9.83,2.09,15.01l-1.09,11.09c-.39,3.94,0,9.48-2.23,12.83ZM283.38,190.78c32.2.62,56.57-24.01,57.03-55.49.3-20.53-8.71-39.1-26.89-49.83-19.32-11.4-44.21-10.22-62.59,2.83-15.42,10.94-22.69,28.43-22.51,46.98.3,30.84,23.54,54.9,54.97,55.5ZM439.23,134.58l3.65,41.57c.85,9.73,9.02,14.67,18.04,13.65,8.19-.93,15.4-6.46,14.36-15.52l-9.29-80.74c-.97-8.4-7.42-14.27-15.42-14.74-9.27-1.37-16.72,3.68-20.45,11.94l-17.63,38.97-16.8-38.99c-3.53-8.21-10.52-13.65-19.85-12.28-8.88.62-15.27,7.01-16.23,15.97l-8.25,76.82c-.57,5.34.46,10.22,3.76,13.45s7.69,4.94,12.86,4.96c6.67.03,14.59-3.67,15.23-11.04l3.89-44.57,11.07,26c2.33,5.46,7.6,8.91,13.61,8.54,7.89.91,13.3-3.44,16.38-10.1l11.07-23.9ZM548.59,124.85c-5.91.04-8.84,6.64-9.12,11.4-.26,4.48.7,8.38,3.58,11.36,7.46,7.71,18.46-1.8,13.84,9.98-6.05,4.8-18.72,5.06-26.43.18-7.45-4.71-12.17-12.55-12.54-22.46-.39-10.65,4.95-21.46,15.43-25.25,9.09-3.29,19.21-1.65,27.84,2.05s16.5,1.15,20.36-6.69c3.24-6.58,1.1-15.44-6.44-19.61-28.93-15.98-70.84-7.51-84.61,24.41-8.26,19.14-6.33,42.31,6.53,58.79,15.81,20.27,44.22,26.32,66.66,18.31,22.67-8.09,26.69-28.4,24.5-49.96-.71-7.02-6.5-12.69-13.49-12.64l-26.12.15ZM546.93,117.28c-8.33-5.08-17.22-.87-21.13,7.21-4.28,8.83-1.83,20.64,7.24,25.94,1.73-.21,1.66-3.6,1.34-5.48-2.02-11.99-.84-22.59,12.55-27.66Z"/>
        <path class="st10" d="M620.3,195c-14.31,1.4-23.24-10.31-24.07-19.89-.3-3.47,1.15-9.51,3.04-12.04l5.98-8.01c-4.24-6.67-6.13-13.72-6.63-21.69l-1.02-16.02c-.92-14.37-5.59-31.08,7.72-40.47,8.89-6.27,21.27-5.66,28.72,2.26,7.35,7.82,7.15,18.24,6.17,28.23l-1.08,10.98-.92,11.15c-.63,7.68-.92,15.63-4.8,22.41-1.22,2.12-2.4,5.15-.12,7.2,6.39,5.74,8.57,14,5.59,22.55-2.57,7.38-9.94,12.5-18.57,13.35ZM630.57,142.77c2.04-15.72,3.7-31.45,4.3-47.29.39-10.27-5.74-17.45-16.1-17.51-9.07-.05-17.38,6.5-16.96,16.52.68,16.24,2.38,32.35,4.34,48.46.82,6.73,5.31,10.18,11.78,10.24,6.94.06,11.72-3.38,12.64-10.41ZM614.18,189.59c9.83,2.32,18.71-3.29,20.21-12.3,1.47-8.9-4.33-17.2-13.94-18.52-8.5-1.17-16.22,4.61-17.64,12.34-1.52,8.28,2.57,16.41,11.37,18.49Z"/>
        <path class="st5" d="M439.23,134.58l-11.07,23.9c-3.08,6.65-8.49,11.01-16.38,10.1-6,.36-11.28-3.08-13.61-8.54l-11.07-26-3.89,44.57c-.64,7.37-8.57,11.07-15.23,11.04-5.17-.02-9.47-1.64-12.86-4.96s-4.33-8.11-3.76-13.45l8.25-76.82c.96-8.96,7.35-15.35,16.23-15.97,9.33-1.37,16.32,4.07,19.85,12.28l16.8,38.99,17.63-38.97c3.74-8.26,11.19-13.3,20.45-11.94,8,.46,14.45,6.33,15.42,14.74l9.29,80.74c1.04,9.06-6.17,14.59-14.36,15.52-9.03,1.02-17.19-3.92-18.04-13.65l-3.65-41.57Z"/>
        <g>
          <path class="st5" d="M548.59,124.85l26.12-.15c6.99-.04,12.78,5.62,13.49,12.64,2.19,21.56-1.84,41.87-24.5,49.96-22.45,8.01-50.85,1.96-66.66-18.31-12.86-16.48-14.79-39.65-6.53-58.79,13.78-31.92,55.68-40.39,84.61-24.41,7.54,4.17,9.68,13.03,6.44,19.61-3.86,7.85-12.15,10.21-20.36,6.69-8.62-3.69-18.75-5.33-27.84-2.05-10.48,3.79-15.82,14.6-15.43,25.25.37,9.91,5.09,17.75,12.54,22.46,7.71,4.88,20.37,4.62,26.43-.18,4.61-11.77-6.38-2.27-13.84-9.98-2.88-2.97-3.85-6.88-3.58-11.36.28-4.75,3.21-11.36,9.12-11.4Z"/>
          <path class="st6" d="M546.93,117.28c-13.39,5.07-14.57,15.67-12.55,27.66.32,1.88.39,5.28-1.34,5.48-9.07-5.3-11.52-17.1-7.24-25.94,3.91-8.07,12.8-12.28,21.13-7.21Z"/>
        </g>
        <path class="st9" d="M630.57,142.77c-.91,7.03-5.7,10.48-12.64,10.41-6.47-.06-10.96-3.51-11.78-10.24-1.96-16.11-3.67-32.22-4.34-48.46-.42-10.02,7.89-16.57,16.96-16.52,10.36.06,16.49,7.25,16.1,17.51-.6,15.84-2.26,31.57-4.3,47.29Z"/>
        <path class="st1" d="M614.18,189.59c-8.8-2.08-12.89-10.21-11.37-18.49,1.42-7.73,9.14-13.51,17.64-12.34,9.61,1.32,15.42,9.62,13.94,18.52-1.49,9.01-10.38,14.62-20.21,12.3Z"/>
        <g>
          <path class="st5" d="M283.38,190.78c-31.43-.6-54.67-24.66-54.97-55.5-.18-18.55,7.09-36.04,22.51-46.98,18.38-13.05,43.27-14.23,62.59-2.83,18.19,10.73,27.19,29.29,26.89,49.83-.46,31.48-24.83,56.11-57.03,55.49ZM302.31,152.42c5.77-7.25,6.69-16.14,5.16-24.65-1.92-10.6-10.35-18.48-20.18-19.52-10.47-1.11-20.08,4.2-24.36,14.11-5.7,13.18-.88,33.03,14.29,37.31,9.55,2.69,19.08.3,25.09-7.25Z"/>
          <path class="st10" d="M302.31,152.42c-6.01,7.55-15.54,9.94-25.09,7.25-15.17-4.28-19.99-24.13-14.29-37.31,4.28-9.91,13.9-15.22,24.36-14.11,9.83,1.04,18.26,8.92,20.18,19.52,1.54,8.51.62,17.4-5.16,24.65ZM302.26,133.76c-.22-11.28-8-19.91-18.88-19.34-10.22.54-17,9.73-16.93,19.86.08,11.03,7.17,20.31,17.9,20.22,11.29-.1,18.14-8.72,17.91-20.74Z"/>
          <path class="st6" d="M302.26,133.76c.23,12.02-6.61,20.64-17.91,20.74s-17.82-9.19-17.9-20.22c-.07-10.13,6.71-19.32,16.93-19.86,10.88-.57,18.66,8.06,18.88,19.34ZM290.11,145.11c6.66-5.42,6.45-16.09.34-21.08-3.49-2.85-9.1-2.05-11.98.2-3.53,2.76-5.03,6.19-4.83,11.31.16,4.05,2.54,7.48,5.48,9.44,2.67,1.78,8.11,2.47,10.98.13Z"/>
          <path class="st16" d="M290.11,145.11c-2.87,2.34-8.32,1.65-10.98-.13-2.94-1.97-5.32-5.4-5.48-9.44-.21-5.11,1.3-8.55,4.83-11.31,2.88-2.25,8.49-3.05,11.98-.2,6.11,5,6.32,15.66-.34,21.08Z"/>
        </g>
      </g>
    </g>
  </g>
</svg>