<?xml version="1.0" encoding="UTF-8"?>
<svg id="logo_xA0_Image" xmlns="http://www.w3.org/2000/svg" xmlns:xlink="http://www.w3.org/1999/xlink" version="1.1" viewBox="0 0 864 864">
  <!-- Generator: Adobe Illustrator 30.2.1, SVG Export Plug-In . SVG Version: 2.1.1 Build 1)  -->
  <defs>
    <style>
      .st0 {
        fill: #3c1448;
      }

      .st1 {
        fill: url(#radial-gradient);
      }

      .st2 {
        fill: #f9f6f9;
      }

      .st3 {
        fill: #ecc162;
      }

      .st4 {
        fill: #d61670;
      }

      .st5 {
        fill: #c6adcd;
      }

      .st6 {
        fill: #fcfbfc;
      }
    </style>
    <radialGradient id="radial-gradient" cx="430.83" cy="432" fx="430.83" fy="432" r="432.59" gradientUnits="userSpaceOnUse">
      <stop offset=".52" stop-color="#3d1449"/>
      <stop offset="1" stop-color="#3d1448"/>
    </radialGradient>
  </defs>
  <rect class="st1" x="-2.34" width="866.34" height="864"/>
  <g>
    <path class="st5" d="M738.53,323.95c-1.7,4.55-14.17-.25-21.18,5.43-4.7,3.8-13.29,4.77-17.75.32-2.85-2.84-2.07-7.91-1.17-11.17,2.2-7.98,26.09-15.41,38.43-9.13,4.38,2.23,3.15,10.61,1.68,14.54Z"/>
    <path class="st5" d="M672.08,417.75c-.11,4.18-5.18,7.09-8.72,6.8-13.21-1.05-9.44-21.42-6.93-29.32,1.44-4.54,8.14-5.23,11.44-3.62,8.78,4.27,4.54,13.47,4.21,26.14Z"/>
    <g>
      <path class="st2" d="M122.78,347.78l-14.23-13.43c-13.75,11.41-18.78,34.83-12.85,52.35,6.13-1.86,11.38-3.8,17.27-2.96,12.66,1.8,25.16,8.72,26.79,22.42,1.37,11.48-10.04,21.27-21.42,18.55-6.37-1.52-12.38-5.59-17.12-10.06-4.43-4.17-5.7-10.07-10.96-14.34-13.08,13.57-18.17,32.09-16.31,50.86.27,2.7-.33,5.08-2.46,5.62-13.31,3.35-3.74-39-.14-44.56,4.62-8.05,9.34-14.7,16.39-20.82-7.69-24.45-1.98-49.96,17.2-65.4-19.28-36.92-3.57-79.63,33.8-92.18,3.74-35.19,38.96-51.7,71.32-41.95,6.65.97,12.27,3.31,17.98,6.84,3.85,2.38,17.63,8.3,13.95,13.99-1.5,2.32-3.49,3.2-6.6.78-17.61-13.7-41-19.64-61.45-12.84-14.02,4.66-23.93,15.93-26.13,31,15.49-1.5,30.53,2.41,42.22,13.87,7.3,7.16,9.94,16.85,4.44,25.66-6.09,9.76-19.41,12.44-30.83,6.97-13.41-6.42-22.42-19.92-24.36-34.91-25.22,7.66-36.69,33.77-33.21,58.62.95,6.8,1.81,13.21,5.87,19.22,4.44.22,8.21-2.86,12.61-3.22,9.01-.73,21.38.38,28.65,7.27,5.42,5.15,6.06,13.79,3.54,18.89-7.65,15.51-28.7,8.72-33.96,3.76ZM164.61,269.81c8.68,4.79,19.86,3.42,23.41-5.85,6.06-15.8-25.4-27.35-40.23-23.46-1.15,9.37,8.29,24.61,16.82,29.31ZM144.65,344.11c3.32-1.8,5.05-4.8,4.76-7.97-1.11-12.32-23.92-11.81-32.38-7.17,4.33,9.57,18.28,20.19,27.61,15.14ZM118.98,415.87c5.33,1.5,10.02-.83,11.51-4.44,1.73-4.18.45-8.49-3.23-12.33-7.67-8.01-19.41-8.9-28.88-3.5,4.25,9.12,11.03,17.57,20.59,20.26Z"/>
      <path class="st5" d="M259.17,357.89c-1.65,2.67-7.2,11.86-9.5,10.84-9.67-13.38-14.69-29.7-13.92-47,1.34-30.34,18.59-49.25,16.67-68.73-1.06-10.74-10.74-16.8-3.48-22.45,1.77-1.37,5.4-1.53,7.63-.49,4.45,2.07,5.62,7.47,7.1,11.78,3.33,9.74,3.9,19.25.41,29.15l-9.92,28.1c-6.97,19.74-6.84,41.8,5.01,58.8Z"/>
      <path class="st5" d="M496.17,301.88c-3.56-1.89-9.72-3.62-13.63-4.72,1.48-6.91,3.22-14.46,7.97-20.44,11.42-14.35,17.01-14.17,29.41-22.45,10.44-6.98,15.47-19.77,9.59-31.48-2.11-4.21-.73-8.12,3.32-10.46,9.47-5.48,13.56,15.1,13.18,21.31-.89,14.44-8.49,26.03-20.68,33.51-13.77,8.44-27.91,15.71-29.16,34.73Z"/>
      <path class="st5" d="M188.12,399.33c-2.85,3.2-8.7,2.99-11.72,1-6.53-4.3-13.8-5.6-21.59-5.14-5.13.3-8.49-4.72-8.43-8.92.27-17.36,34.45-6.47,42.63,1.28,1.13,3.62,2.11,8.42-.89,11.78Z"/>
      <path class="st5" d="M378.56,242.94c1.33,5.48-2.63,8.63-6.58,10.31-3.25,1.38-9.72-.58-10.88-4.69-2.17-7.69-7.11-11.5-13.11-15.68-3.8-2.65-3.23-9.48-1.09-12.23,8.45-10.91,27.58,5.4,31.66,22.3Z"/>
      <path class="st5" d="M610.27,231.78c2.03,3.97-.32,7.79-2.52,10.09-2.65,2.78-6.45,5.31-10.52,3.37l-12.07-5.72c-2.89-1.37-5.35-1.87-7.57-4.25-2.88-3.09-3.7-6.97-2.03-10.64,3.5-7.69,27.34-7.24,34.71,7.15Z"/>
      <path class="st5" d="M215.16,316.85c1.7,4.61-.54,9.38-3.49,10.9-9.51,4.92-13.33-5.25-20.83-5.79-4.35-.32-8.86-2.95-10-6.52-1.36-4.25-.27-9.8,3.8-11.77,9.01-4.37,27.59,5.24,30.52,13.18Z"/>
      <path class="st5" d="M623.66,354.62c-3.58,4.96-11.38,3.64-16.36,1.53-4.69-5.95-3.58-13.83,3.03-18.12,3.3-5.98,13.12-8.27,18.14-3.2,2.92,2.95,1.74,10.76-.47,13.4-1.81,2.16-2.62,4.01-4.33,6.39Z"/>
      <g>
        <path class="st2" d="M624.53,454.39l2.4,13.01c40.67.43,74.06,32.15,76.23,72.65,1.78,33.25-16.04,62.46-46.44,75.58-14.54,6.28-30.05,7.78-46.46,3.43-14.01,42.35-41.3,88.68-74.35,118.77-27.15,24.73-59.76,42.06-96.45,48.64-15.61,32.9-56.63,45.21-86.82,24.6-9.25-6.32-15.32-15.17-20.49-25.01-4.14-7.87-4.43-17.88-7.04-25.93-28.79-19.74-48.4-39.72-68.05-68.62-10.06-14.79-19.02-29.53-25.9-46.08l-10.81-25.99c-41.3,9.83-82.2-15.66-91.18-57.6-5.04-23.53.27-47.44,15.86-66.54,13.91-17.05,35.87-27.79,60.44-28.01,6.75-36.6,23.78-67.61,44.19-98.56,2.3,1.02,7.85-8.17,9.5-10.84,12.27-11.18,23.48-23.61,37.76-32.94l19.11-12.48c-20.09-26.53-26.34-59.27-12.45-89.19,1.18-2.54,3.52-3.06,5.53-2.94,1.63.09,4.72,2.41,3.5,4.85-13.88,27.65-8.14,59.86,12.1,83,28.69-13.78,56.87-21.09,89.16-21.15l-.61-12.24c-2.37-47.67,59.17-78.66,59.67-59.75.37,13.89-12.97,1.27-33.72,26.37-10.4,12.58-13.98,28.77-11.43,45.39,18.92,1.26,36.47,5.22,54.76,10.35,3.9,1.1,10.06,2.83,13.63,4.72,12.74,6.75,25.51,13.41,38.64,21.58,8.52-15.26,21.3-27.92,37.95-32.96,11.38-3.45,23.52-3.19,33.38,3.43,1.99,1.33,1.73,7.01.42,8.91-2.98,4.31-8.69,2.59-12.8,1.05-18.95-7.11-40.85,10.44-47.1,28.48,35.85,29.19,61.78,70.08,75.65,113.99M284.15,532.13c-.68-.36-1.37-.71-2.06-1.03-7.18-7.43-15.59-13.16-21.72-22.05-12.34-17.92-17.24-39.17-13.93-61.34-6.33-.96-11.28-3.67-17.2-6.68-5.14,13.1-7.7,26.11-10.52,39.04-.96,4.4-5.02,3.87-8.44,3.49-25.35-2.81-49.15,11.46-60.24,32.68-12.17,23.29-8.45,50.92,8.61,69.85,17.49,19.4,43.8,25.07,67.26,14.48,3.01-1.36,5.92,1.64,6.66,3.9,7.11,21.72,15.33,42.49,27.23,61.93,10.65,17.39,21.62,33.5,35.74,48.05,9.11,9.39,17.76,18.26,29.25,25.43,1.54-15.94,5.15-29.74,10.57-43.81-21.3-31.22-30.01-69.87-22.85-106.38,4.26-21.72,22.72-33.94,44.06-30.34,39.5,6.67,63.95,7.17,103.71-.05,21.28-3.86,40.72,9.03,44.65,30.6,8.01,43.9-6.52,98.25-44.25,125.77-2.89,2.48-3.92,8.41-4.7,12.08l-8.6,40.82c33.04-6.66,65.92-28.92,88.13-52.54,29.4-31.26,50.76-70.84,63.15-111.82.93-3.08,4.57-3.9,7.32-2.78,20.16,8.23,42.26,4.86,59.11-9.18,15.98-13.32,24.14-33.07,22.13-54.28-1.75-18.44-12.78-36.21-29.9-46.53-25.41-15.31-42.77-1.19-44.32-12.68-6.42-47.47-34.28-99.02-71.76-129.16-1.3,4.09-.12,6.74-2.51,8.68-1.9,1.54-4.09,2.74-7.67,2.92,3.23,4.35,2.56,9.4-1.32,12.41-3.58,2.77-7.86,1.72-11.43-1.67-10.07-9.58-24.8-11.58-37.11-5.07-4.34,2.29-9.24,1.22-11.32-2.99-1.81-3.64-.32-8.39,3.76-10.76,16.67-9.69,36.95-7.33,53.1,4.34l2.6-17.83c-28.28-20.59-61.36-33.44-96.45-36.18-.07,2.38,1.39,3.59,2.17,5.26,1.63,3.5.9,7.2-2.27,9.18-1.91,1.19-6,1.76-8.42-.72-3.56-3.64-4.63-9.08-6.76-14.58-51.71-.63-101.2,20.62-137.4,57.35-8.44,8.56-16.07,16.34-22.56,26.5,5.87,5.96,1.44,9.44,12.82,15.26,9.33-7.42,18.6-13.7,30.1-16.88,26.66-7.36,54.99,1.45,73.47,22.39,24.86,28.16,26.96,71.16,5.41,101.58-20.85,29.42-58.17,39.75-90.5,24.46-1.74-.82-3-1.62-4.8-1.13ZM343.66,526.18c36.93-15.46,51-60.36,34.69-95.48-7.64-16.46-19.98-28.27-36.87-34.86-27.62-10.78-58.26.12-74.74,25.27-13.59,20.74-15.19,47.86-5.32,70.45,14.04,32.13,49.62,48.28,82.24,34.62ZM256.93,418.73c2.48-4.3,4.71-5.91,5.7-9.72-5.48-2.94-7.89-7.1-11.62-12.34-2.15,3.63-7.18,8.42-6.5,13.05.77,5.19,8.02,7.07,12.41,9.01ZM248.87,437.15l2.86-9.4c-5.45-1.83-9.77-4.61-13.83-8.71-2.03,3.77-2.9,6.71-4.41,10.39,3.49,4.82,9.28,8.28,15.39,7.72ZM478.06,677.94c13.9-25.4,20.64-62.34,13.59-88.27-3.03-11.16-12.22-18.36-24-17.66-5.61.33-11.16,1.2-16.87,2.09-22.73,3.52-44.98,4.73-67.86,1.86l-31.61-3.97c-12.51-1.57-22.55,6.42-25.73,18.07-1.84,6.74-2.22,13.03-2.41,20.17-.68,25.59,4.93,50.91,19.24,73.36,10.34-15.53,25.11-26.14,41.88-24.36l23.04,2.44c6.56.69,39.46-13.13,70.74,16.28ZM342.51,784.89c8.44,16.8,23.92,26.63,42.56,26.89,25.75.35,43.2-17.78,51.03-40.55,3.94-11.46,6.51-23,8.4-35.06,5.65-36.07,25.35-46.72,24.56-52.28-1.15-8.04-45.1-28.02-63.78-5.83-16.94,20.13-19.18,48.8-18.36,74.1.1,3.02-1.07,5.76-3.53,6.21-2,.37-5.85-.66-6.05-3.73-1.67-26.61,2.02-62.35,21.39-84.46-21.5-4.1-37.51,1.8-48.89,20.46-15.85,26-21.39,66.28-7.33,94.25Z"/>
        <path class="st4" d="M282.09,531.1c-19.24-8.88-42.04-.66-51.2,18.44s-1.29,42.03,17.68,51.47c18.97,9.44,42.01,1.91,51.73-16.91,9.73-18.83,2.54-41.97-16.14-51.98,1.8-.49,3.06.3,4.8,1.13,32.32,15.29,69.65,4.96,90.5-24.46,21.56-30.42,19.45-73.42-5.41-101.58-18.49-20.94-46.81-29.76-73.47-22.39-11.5,3.17-20.77,9.46-30.1,16.88-11.38-5.82-6.95-9.3-12.82-15.26,6.49-10.16,14.12-17.94,22.56-26.5,36.2-36.74,85.69-57.99,137.4-57.35,2.13,5.5,3.2,10.93,6.76,14.58,2.42,2.47,6.5,1.91,8.42.72,3.18-1.97,3.9-5.68,2.27-9.18-.77-1.66-2.24-2.88-2.17-5.26,35.09,2.75,68.17,15.59,96.45,36.18l-2.6,17.83c-16.15-11.67-36.43-14.04-53.1-4.34-4.08,2.38-5.57,7.12-3.76,10.76,2.08,4.2,6.98,5.28,11.32,2.99,12.31-6.51,27.04-4.51,37.11,5.07,3.57,3.4,7.86,4.45,11.43,1.67,3.88-3.01,4.54-8.05,1.32-12.41,3.58-.18,5.77-1.38,7.67-2.92,2.4-1.95,1.21-4.59,2.51-8.68,37.48,30.14,65.33,81.69,71.76,129.16,1.56,11.5,18.92-2.63,44.32,12.68,17.13,10.32,28.16,28.09,29.9,46.53,2.01,21.22-6.15,40.96-22.13,54.28-16.85,14.05-38.95,17.41-59.11,9.18-2.75-1.12-6.39-.29-7.32,2.78-12.39,40.98-33.75,80.56-63.15,111.82-22.22,23.62-55.09,45.87-88.13,52.54l8.6-40.82c.77-3.67,1.81-9.6,4.7-12.08,37.72-27.51,52.26-81.87,44.25-125.77-3.94-21.57-23.37-34.47-44.65-30.6-39.76,7.22-64.22,6.72-103.71.05-21.33-3.6-39.79,8.62-44.06,30.34-7.16,36.51,1.54,75.16,22.85,106.38-5.42,14.07-9.03,27.87-10.57,43.81-11.49-7.17-20.14-16.04-29.25-25.43-14.12-14.55-25.09-30.66-35.74-48.05-11.91-19.45-20.13-40.21-27.23-61.93-.74-2.26-3.66-5.26-6.66-3.9-23.45,10.58-49.77,4.92-67.26-14.48-17.07-18.94-20.78-46.57-8.61-69.85,11.09-21.22,34.89-35.5,60.24-32.68,3.42.38,7.48.91,8.44-3.49,2.82-12.93,5.38-25.93,10.52-39.04,5.92,3.01,10.87,5.72,17.2,6.68-3.32,22.17,1.59,43.43,13.93,61.34,6.13,8.89,14.54,14.62,21.72,22.05ZM337.42,367.56c4.41,2.5,8.98-.15,10.8-3.5,1.99-3.65.68-8.28-3.31-10.52-19.23-10.79-43.04-7.64-58.17,8.48-2.96,3.16-1.17,9.5,1.45,11.26,3.75,2.51,8.21,2.06,11.47-1.27,9.93-10.15,25.16-11.6,37.77-4.45ZM533.47,532.71c-.82,2.54-3.99,2.66-6.09,4.71-8.4,8.18-13.79,20.23-12.64,31.98,2.05,20.86,18.71,35.7,38.34,35.76s37.32-14.68,38.8-35.06c.95-13.06-3.06-23.94-12.52-32.44-12.26-11.02-29.11-12.7-43.78-5.95,1.96-2.58,4.67-4.13,7.55-6.36,23.49-18.27,34.39-47.83,29.61-77.66,7.5-1.2,14.44-3.06,19.15-9.02,1.63-2.06.74-5.2-.81-6.49-6.94-5.8-8.88,7.32-20.35,5.04-.86-3.19-2.52-5.88-2.41-9.16,6.36-2.77,12.31-6.27,15.39-12.13,1.63-3.11.53-6.52-2.4-7.48-7.3-2.38-6.74,8.19-18.29,10.5-2.77-3.11-4.97-6.23-6.7-10.04,5.62-3.55,10.29-7.76,11.99-13.89.86-3.08-.29-6.05-3-6.67-10.56-2.44-2.86,6.55-17.26,13.32-27.98-25.94-70-26.04-98,.38-31.25,29.49-33.69,80.04-5.78,112.7,20.35,23.81,52.25,31.82,81.36,20.58,2.8-1.08,5.13-2.56,7.82-2.6ZM424.83,540.46c2.39.18,5.2-1.52,5.37-4.73.44-8.27-3.28-16.13-10.18-20.92-6.65-4.62-15.19-4.33-22.64-.18-9.56,5.34-13.05,21.09-9.34,24.1,1.67,1.36,4.17,1.95,6.52.81,3.74-1.83,1.4-17.82,14.28-17.52,14.33.33,7.74,17.83,15.98,18.44Z"/>
        <g>
          <path class="st0" d="M478.06,677.94c-31.28-29.41-64.18-15.58-70.74-16.28l-23.04-2.44c-16.76-1.77-31.53,8.84-41.88,24.36-14.31-22.45-19.92-47.77-19.24-73.36.19-7.15.58-13.44,2.41-20.17,3.18-11.66,13.22-19.65,25.73-18.07l31.61,3.97c22.88,2.87,45.13,1.66,67.86-1.86,5.72-.88,11.26-1.75,16.87-2.09,11.77-.7,20.97,6.51,24,17.66,7.05,25.94.31,62.88-13.59,88.27Z"/>
          <path class="st4" d="M342.51,784.89c-14.06-27.97-8.52-68.25,7.33-94.25,11.37-18.66,27.39-24.56,48.89-20.46-19.37,22.11-23.06,57.85-21.39,84.46.19,3.07,4.04,4.1,6.05,3.73,2.45-.45,3.62-3.19,3.53-6.21-.82-25.29,1.42-53.97,18.36-74.1,18.68-22.2,62.63-2.21,63.78,5.83.79,5.56-18.91,16.2-24.56,52.28-1.89,12.06-4.45,23.6-8.4,35.06-7.83,22.77-25.28,40.91-51.03,40.55-18.63-.26-34.11-10.09-42.56-26.89Z"/>
        </g>
        <circle class="st3" cx="265.84" cy="566.31" r="38.77"/>
        <path class="st4" d="M256.93,418.73c-4.39-1.94-11.64-3.82-12.41-9.01-.69-4.63,4.35-9.42,6.5-13.05,3.73,5.24,6.14,9.41,11.62,12.34-.99,3.81-3.22,5.42-5.7,9.72Z"/>
        <path class="st4" d="M248.87,437.15c-6.11.55-11.89-2.9-15.39-7.72,1.51-3.68,2.38-6.62,4.41-10.39,4.06,4.1,8.38,6.88,13.83,8.71l-2.86,9.4Z"/>
        <path class="st3" d="M533.47,532.71c.91-.01,1.39-.67,2.12-1.01,14.67-6.75,31.52-5.07,43.78,5.95,9.46,8.5,13.47,19.37,12.52,32.44-1.48,20.38-18.83,35.13-38.8,35.06s-36.29-14.9-38.34-35.76c-1.15-11.75,4.24-23.79,12.64-31.98,2.1-2.04,5.26-2.16,6.09-4.71Z"/>
        <path class="st2" d="M337.42,367.56c-12.6-7.15-27.83-5.7-37.77,4.45-3.26,3.33-7.71,3.78-11.47,1.27-2.62-1.75-4.41-8.1-1.45-11.26,15.13-16.12,38.94-19.28,58.17-8.48,4,2.24,5.3,6.87,3.31,10.52-1.82,3.34-6.39,6-10.8,3.5Z"/>
        <path class="st2" d="M424.83,540.46c-8.24-.61-1.65-18.1-15.98-18.44-12.89-.3-10.54,15.69-14.28,17.52-2.35,1.15-4.85.55-6.52-.81-3.71-3.02-.23-18.77,9.34-24.1,7.45-4.15,15.99-4.44,22.64.18,6.9,4.79,10.61,12.65,10.18,20.92-.17,3.21-2.98,4.91-5.37,4.73Z"/>
        <g>
          <path class="st2" d="M535.59,531.7c-.73.33-1.21.99-2.12,1.01-2.69.04-5.02,1.52-7.82,2.6-29.11,11.25-61.01,3.23-81.36-20.58-27.91-32.66-25.46-83.21,5.78-112.7,27.99-26.42,70.01-26.32,98-.38,14.4-6.77,6.7-15.77,17.26-13.32,2.71.63,3.85,3.59,3,6.67-1.7,6.13-6.37,10.34-11.99,13.89,1.73,3.8,3.93,6.92,6.7,10.04,11.55-2.31,10.99-12.88,18.29-10.5,2.93.96,4.03,4.37,2.4,7.48-3.08,5.86-9.03,9.36-15.39,12.13-.11,3.27,1.56,5.97,2.41,9.16,11.47,2.28,13.41-10.83,20.35-5.04,1.55,1.29,2.44,4.43.81,6.49-4.71,5.96-11.65,7.82-19.15,9.02,4.77,29.83-6.12,59.39-29.61,77.66-2.88,2.24-5.59,3.79-7.55,6.36ZM472.16,524.73c25.05,12.59,54.62,6.24,73.16-13.98,25.55-27.86,25.42-70.42.39-98.09-26.7-29.52-71.7-27.56-96.06,3.67-26.59,34.1-18.29,87.89,22.51,108.4Z"/>
          <path class="st0" d="M472.16,524.73c-40.8-20.51-49.1-74.3-22.51-108.4,24.35-31.23,69.36-33.19,96.06-3.67,25.02,27.67,25.16,70.23-.39,98.09-18.54,20.21-48.1,26.57-73.16,13.98ZM522.56,512.79c11.44-6.44,19.78-16.03,24.55-27.52,10.82-26.06,3.33-56.09-19.68-72.28-18.88-13.28-43.57-12.01-60.8,3.29-24.4,21.65-26.81,59.23-5.91,84.25,15.12,18.1,40.83,24.09,61.84,12.26Z"/>
          <path class="st6" d="M522.56,512.79c-21.01,11.83-46.71,5.84-61.84-12.26-20.9-25.02-18.5-62.6,5.91-84.25,17.24-15.3,41.92-16.57,60.8-3.29,23.01,16.19,30.5,46.23,19.68,72.28-4.77,11.49-13.11,21.08-24.55,27.52Z"/>
        </g>
        <g>
          <path class="st0" d="M343.66,526.18c-32.62,13.66-68.2-2.48-82.24-34.62-9.87-22.59-8.27-49.72,5.32-70.45,16.48-25.15,47.12-36.05,74.74-25.27,16.89,6.59,29.22,18.4,36.87,34.86,16.31,35.12,2.24,80.02-34.69,95.48ZM358.53,500.09c19.3-22.68,18.52-57.38-1.34-79.16-11.33-12.41-27.17-18.54-43.51-16.61-15.32,1.81-28.91,10.82-37.56,25.03-13.13,21.58-11.47,50.21,4.37,70.02,9.72,12.15,23.72,18.95,38.36,19.26s29.03-6.04,39.68-18.55Z"/>
          <path class="st6" d="M358.53,500.09c-10.65,12.52-24.35,18.89-39.68,18.55s-28.65-7.12-38.36-19.26c-15.84-19.81-17.5-48.44-4.37-70.02,8.65-14.22,22.24-23.23,37.56-25.03,16.34-1.93,32.19,4.19,43.51,16.61,19.87,21.77,20.64,56.48,1.34,79.16Z"/>
        </g>
      </g>
      <g>
        <path class="st4" d="M647.33,106.37c-.66,8.26-1.38,15.98-5.49,22.91-1,1.69-1.79,4.03.1,5.7,7.13,6.29,9.66,15.61,6.61,24.47-3.05,8.84-10.19,14.32-20.42,15.67-17.07,2.26-26.67-10.05-28.63-26.94-7.24,7.74-12.59,15.53-20.95,20.33-10.91,6.26-28.83,8.43-41.09,7.54-22.85-1.66-40.49-15.1-54.14-34.15l-3.47,17.39c-.78,3.88-4.03,7.57-7.51,10.57-9.12,7.87-26.27,8.08-34.32-1-6.25-7.05-7.21-16.08-8.97-24.72-11.34,11.21-31.96,10.74-42.31.46-3.66,15.83-7.9,31.07-28.37,30.44-9.6-.3-18.02-4.36-21.78-13.7-6.08-15.1,1.48-22.71-3.34-24.06-1.38,6.79-6.47,10.52-10.28,15.3-5.1,6.4-11.03,10.78-17.92,15.1-10.49,6.58-21.98,8.94-34.46,9.15-23.03.39-44.02-10.91-55.66-30.39-6.83-11.42-10.36-22.25-10.41-35.58-.06-13.01,3.48-23.91,9.2-35.5,4.51-9.13,11.52-15.83,20.11-21.42,11.62-7.56,23.78-11.62,37.86-11.07,18.27.71,35.37,6.77,47.67,20.3,8.65,9.51,15.78,19.38,18.81,32.8,6.92-15.05.57-31.89,14.29-46.31,4.44-4.67,10.49-5.47,16.75-5.78,22.59-1.12,28.1,21.49,36.42,37.99.25.49.9,1.56,1.17,1.37.42-.3,1.57-1.07,1.92-1.77l9.87-19.72c6.11-12.2,14.17-18.57,28.12-17.76,12.42.72,22.6,9.94,24.53,22.13l4.52,28.67c4.32-4.95,4.72-10.36,7.36-15.31,3.06-5.75,6.74-11.54,11.55-15.77,11.05-9.73,23.06-17.6,37.71-19.56,11.84-1.58,23.32-2.02,34.62,1.39,12.34,3.73,30.5,13.21,28.86,27.96-.92,8.26-5.9,13.95-11.97,19.14,9.16,3.88,15.26,9.75,18.11,18.47.47-6.4.62-12.12.07-18.16l-.96-10.68c-.62-6.89-1.59-13.31.21-20.16,2.52-9.59,10.3-16.99,19.95-18.2,12.78-1.6,24.11,4.15,27.37,16.46,2.04,7.72,1.29,15.09.62,22.98l-1.08,12.7-.83,10.29ZM331.02,109.61c0-33.07-26.81-59.89-59.89-59.89s-59.89,26.81-59.89,59.89,26.81,59.89,59.89,59.89,59.89-26.81,59.89-59.89ZM439.19,153.78c.97,11.24,10.3,15.93,20.05,14.48s15.21-8.96,13.99-19.35l-9.48-80.79c-.59-5.02-2.24-9.69-6.02-12.91-5.62-4.78-13.15-5.56-20.4-3.1-5.76,1.96-9.71,7.1-12.61,13.56l-17.68,39.39c-6.03-11.14-15.85-40.42-22.6-48.7-5.01-6.15-14.75-7.05-21.49-4.68-7.75,2.74-11.22,8.84-12.07,16.62l-8.73,79.86c-.62,5.72.02,11.01,3.94,14.97,3.24,3.27,8.37,5.05,13.49,5.18,8.46.22,15.67-4.55,16.44-13.12l4.05-44.92c6.34,10.54,7.57,21.78,14.44,30.63,6.46,8.33,22.32,7.13,26.72-1.77l14.2-28.71,3.76,43.36ZM541.58,112.04c-.32,4.97,1.35,9.45,3.96,11.92,8.97,8.51,17.42-2.61,15.34,9.48-.66,3.83-19.63,9.99-32.85-1.6-7.43-6.51-10.41-16.43-9.09-26.77,1.41-10.98,8.46-19.8,19.66-22.17,9.32-1.97,18.69-.06,27.34,3.64,8.19,3.5,16.84-.29,20.16-7.46,3.51-7.59.59-15.87-6.73-20.51-10.1-6.41-22.06-8.11-34.29-8.25-21.25-.25-41.31,9.89-52.3,27.97-6.16,10.14-8.34,20.89-8.19,32.51.34,25.86,15.46,47.4,40.23,55.29,26.18,8.33,64.64.9,67.92-31.82.75-7.47,1.45-14.49.26-21.67s-7.39-13.01-14.98-12.97l-26.36.16c-6.33.04-9.7,6.32-10.08,12.23ZM636.8,122.84c3.65-18.7,5.03-36.92,5.67-55.33.35-10.27-6.76-17.23-16.86-17.28-9.23-.05-17.94,6.01-17.78,16.25.28,17.95,2.26,35.72,4.71,53.47.83,6.02,5.2,9.32,11.25,9.62,4.49.22,11.86-.86,13.01-6.73ZM533.72,109.84c.63-10.55,12.4-17.33,17.46-19-3.41-2.92-13.52-.13-16.78,2.1-10.76,7.35-9.28,31.3,4.71,36.24-.21.04-5.67-14.71-5.39-19.34ZM608.34,129.41c-2.23-3.1-3.52-6.03-4.66-9.84-3.13,4.96-2.16,10.16-2.44,15.7-.11,2.25-2.28,4.56.55,6.45,1.82-2.44,8.82-9.14,6.54-12.31ZM642.1,152.27c0-9.3-7.54-16.84-16.84-16.84s-16.84,7.54-16.84,16.84,7.54,16.84,16.84,16.84,16.84-7.54,16.84-16.84Z"/>
        <g>
          <path class="st6" d="M439.19,153.78l-3.76-43.36-14.2,28.71c-4.4,8.9-20.26,10.1-26.72,1.77-6.87-8.85-8.09-20.09-14.44-30.63l-4.05,44.92c-.77,8.57-7.98,13.33-16.44,13.12-5.12-.13-10.25-1.91-13.49-5.18-3.92-3.96-4.56-9.26-3.94-14.97l8.73-79.86c.85-7.78,4.32-13.88,12.07-16.62,6.73-2.38,16.48-1.48,21.49,4.68,6.74,8.28,16.57,37.57,22.6,48.7l17.68-39.39c2.9-6.46,6.85-11.6,12.61-13.56,7.25-2.46,14.78-1.68,20.4,3.1,3.78,3.22,5.43,7.9,6.02,12.91l9.48,80.79c1.22,10.39-3.79,17.84-13.99,19.35s-19.08-3.24-20.05-14.48Z"/>
          <path class="st6" d="M541.58,112.04c.38-5.91,3.76-12.19,10.08-12.23l26.36-.16c7.6-.05,13.76,5.55,14.98,12.97s.48,14.21-.26,21.67c-3.28,32.72-41.74,40.15-67.92,31.82-24.78-7.89-39.9-29.43-40.23-55.29-.15-11.62,2.03-22.38,8.19-32.51,10.99-18.09,31.05-28.22,52.3-27.97,12.23.14,24.19,1.83,34.29,8.25,7.32,4.65,10.24,12.92,6.73,20.51-3.32,7.17-11.97,10.96-20.16,7.46-8.65-3.7-18.02-5.61-27.34-3.64-11.2,2.37-18.26,11.19-19.66,22.17-1.32,10.34,1.66,20.26,9.09,26.77,13.23,11.58,32.19,5.43,32.85,1.6,2.09-12.1-6.37-.98-15.34-9.48-2.61-2.47-4.28-6.94-3.96-11.92Z"/>
          <path class="st6" d="M636.8,122.84c-1.15,5.88-8.52,6.96-13.01,6.73-6.04-.3-10.41-3.6-11.25-9.62-2.45-17.74-4.44-35.52-4.71-53.47-.16-10.25,8.55-16.3,17.78-16.25,10.1.05,17.22,7.01,16.86,17.28-.64,18.41-2.01,36.63-5.67,55.33Z"/>
          <circle class="st2" cx="625.25" cy="152.27" r="16.84"/>
          <g>
            <path class="st6" d="M331.02,109.61c0,33.07-26.81,59.89-59.89,59.89s-59.89-26.81-59.89-59.89,26.81-59.89,59.89-59.89,59.89,26.81,59.89,59.89ZM291.16,127.84c6.69-10.11,6.86-22.6,1.84-32.82-3.71-7.54-11.09-11.7-18.01-12.77-8.26-1.28-16.18,1.25-21.67,7.04-6.62,6.99-8.21,16.29-7.11,25.64,1.24,10.47,8.2,19.47,17.48,21.93,10.28,2.73,21.35.21,27.47-9.03Z"/>
            <path class="st4" d="M291.16,127.84c-6.12,9.25-17.18,11.76-27.47,9.03-9.28-2.46-16.25-11.46-17.48-21.93-1.1-9.35.49-18.65,7.11-25.64,5.49-5.79,13.41-8.32,21.67-7.04,6.91,1.07,14.3,5.23,18.01,12.77,5.03,10.22,4.85,22.71-1.84,32.82ZM284.96,96.46c-4.75-6.3-13.76-8.47-20.56-5.27s-10.92,9.64-10.97,17.58c-.05,7.1,1.95,14.65,8.22,18.34,5.86,3.45,12.73,4.2,18.65.58,11.71-7.16,9.43-24.91,4.66-31.23Z"/>
          </g>
        </g>
        <g>
          <path class="st6" d="M439.56,154.08l-3.76-43.36-14.2,28.71c-4.4,8.9-20.26,10.1-26.72,1.77-6.87-8.85-8.09-20.09-14.44-30.63l-4.05,44.92c-.77,8.57-7.98,13.33-16.44,13.12-5.12-.13-10.25-1.91-13.49-5.18-3.92-3.96-4.56-9.26-3.94-14.97l8.73-79.86c.85-7.78,4.32-13.88,12.07-16.62,6.73-2.38,16.48-1.48,21.49,4.68,6.74,8.28,16.57,37.57,22.6,48.7l17.68-39.39c2.9-6.46,6.85-11.6,12.61-13.56,7.25-2.46,14.78-1.68,20.4,3.1,3.78,3.22,5.43,7.9,6.02,12.91l9.48,80.79c1.22,10.39-3.79,17.84-13.99,19.35s-19.08-3.24-20.05-14.48Z"/>
          <path class="st6" d="M541.95,112.35c.38-5.91,3.76-12.19,10.08-12.23l26.36-.16c7.6-.05,13.76,5.55,14.98,12.97,1.19,7.19.48,14.21-.26,21.67-3.28,32.72-41.74,40.15-67.92,31.82-24.78-7.89-39.9-29.43-40.23-55.29-.15-11.62,2.03-22.38,8.19-32.51,10.99-18.09,31.05-28.22,52.3-27.97,12.23.14,24.19,1.83,34.29,8.25,7.32,4.65,10.24,12.92,6.73,20.51-3.32,7.17-11.97,10.96-20.16,7.46-8.65-3.7-18.02-5.61-27.34-3.64-11.2,2.37-18.26,11.19-19.66,22.17-1.32,10.34,1.66,20.26,9.09,26.77,13.23,11.58,32.19,5.43,32.85,1.6,2.09-12.1-6.37-.98-15.34-9.48-2.61-2.47-4.28-6.94-3.96-11.92Z"/>
          <path class="st6" d="M637.16,123.15c-1.15,5.88-8.52,6.96-13.01,6.73-6.04-.3-10.41-3.6-11.25-9.62-2.45-17.74-4.44-35.52-4.71-53.47-.16-10.25,8.55-16.3,17.78-16.25,10.1.05,17.22,7.01,16.86,17.28-.64,18.41-2.01,36.63-5.67,55.33Z"/>
          <circle class="st2" cx="625.62" cy="152.58" r="16.84"/>
          <path class="st4" d="M291.53,128.14c-6.12,9.25-17.18,11.76-27.47,9.03-9.28-2.46-16.25-11.46-17.48-21.93-1.1-9.35.49-18.65,7.11-25.64,5.49-5.79,13.41-8.32,21.67-7.04,6.91,1.07,14.3,5.23,18.01,12.77,5.03,10.22,4.85,22.71-1.84,32.82ZM285.33,96.77c-4.75-6.3-13.76-8.47-20.56-5.27s-10.92,9.64-10.97,17.58c-.05,7.1,1.95,14.65,8.22,18.34,5.86,3.45,12.73,4.2,18.65.58,11.71-7.16,9.43-24.91,4.66-31.23Z"/>
        </g>
      </g>
    </g>
    <path class="st2" d="M728.51,262.37c-4.5-1.03-8.78-2.34-11.9-5.18,7.63-48.6-34.41-72.04-80.17-69.29-5.71.34-10.72,7.37-9,9.93,2.51,3.73,4.58,4.73,10.15,3.17,7.2-2.02,13.6,1.08,20.2,1.6,28.81,2.29,53.29,27.3,45.53,55.75-17.03-.67-33.59.06-50.22,7.36-13.18,5.79-25.62,16.33-27.56,29.26-2.4,15.91,11.59,25.74,25.65,24.46,23.59-2.15,45.11-18.68,56.47-39.63,1.84-3.4,3.61-5.99,7.08-6.9,2.33-.61,4.52.43,7.02,1.15,33.33,9.6,62.68,40.71,50.84,79.07-20.65-11.13-48.98-4.39-64.93,16.96-9.94,13.31-9.84,28.16-.28,37.42,10.6,10.27,29.03,6.5,44.67-3.38,10.57-6.68,16.28-16.82,26.14-26.01,7.1,14.87,9.95,31.24,6.01,47.95-2.41,10.24-4.49,20.18-8.66,30l-34.97,72.31c21.76-23.11,36.21-42.97,47.28-69.67,14.47-34.9,17.59-72.04-4.07-97.21,18.16-46.29-15.27-89.95-55.26-99.13ZM650.62,307.01c-7.62.68-13.27-6.28-13.18-12.55.28-19.75,48.39-29,59.95-22.57-8.36,17.55-27.24,33.36-46.77,35.11ZM764.84,369.1c-3.07,13.48-31.44,40.57-47.71,29.46-5.45-3.72-5.87-11.72-2.66-19.21,5.51-12.87,21.23-20.51,34.54-19.04,5.14.57,17.47,1.58,15.82,8.79Z"/>
  </g>
</svg>